<svg xmlns="http://www.w3.org/2000/svg" xmlns:xlink="http://www.w3.org/1999/xlink" width="840" height="711.3"><rect width="840" height="711.3" rx="5" ry="5" class="a"/><svg y="0%" x="0%"><circle cx="20" cy="20" r="6" fill="#ff5f58"/><circle cx="40" cy="20" r="6" fill="#ffbd2e"/><circle cx="60" cy="20" r="6" fill="#18c132"/></svg><svg height="651.3" viewBox="0 0 80 65.13" width="800" x="15" xmlns="http://www.w3.org/2000/svg" xmlns:xlink="http://www.w3.org/1999/xlink" y="50"><style>@keyframes i{0%{transform:translateX(0)}61.6%{transform:translateX(-80px)}61.7%{transform:translateX(-160px)}98.5%{transform:translateX(-240px)}98.6%{transform:translateX(-400px)}99.9%{transform:translateX(-480px)}to{transform:translateX(-640px)}}.a{fill:#282d35}.f{fill:#b9c0cb;white-space:pre}</style><g font-family="Monaco,Consolas,Menlo,'Bitstream Vera Sans Mono','Powerline Symbols',monospace" font-size="1.67"><defs><symbol id="1"><text y="1.67" class="f">&gt;</text><text x="2.004" y="1.67" class="f">clawdwatch@0.1.0</text><text x="19.038" y="1.67" class="f">watch</text></symbol><symbol id="2"><text y="1.67" class="f">&gt;</text><text x="2.004" y="1.67" class="f">ts-node</text><text x="10.02" y="1.67" class="f">src/index.ts</text></symbol><symbol id="3"><text y="1.67" class="f">╔═══════════════════════════════════════════════════════════╗</text></symbol><symbol id="4"><text y="1.67" class="f">║</text><text x="60.12" y="1.67" class="f">║</text></symbol><symbol id="5"><text y="1.67" class="f">║</text><text x="6.012" y="1.67" class="f">██████╗██╗</text><text x="22.044" y="1.67" class="f">█████╗</text><text x="29.058" y="1.67" class="f">██╗</text><text x="36.072" y="1.67" class="f">██╗██████╗</text><text x="60.12" y="1.67" class="f">║</text></symbol><symbol id="6"><text y="1.67" class="f">║</text><text x="5.01" y="1.67" class="f">██╔════╝██║</text><text x="21.042" y="1.67" class="f">██╔══██╗██║</text><text x="36.072" y="1.67" class="f">██║██╔══██╗</text><text x="60.12" y="1.67" class="f">║</text></symbol><symbol id="7"><text y="1.67" class="f">║</text><text x="5.01" y="1.67" class="f">██║</text><text x="13.026" y="1.67" class="f">██║</text><text x="21.042" y="1.67" class="f">███████║██║</text><text x="33.066" y="1.67" class="f">█╗</text><text x="36.072" y="1.67" class="f">██║██║</text><text x="44.088" y="1.67" class="f">██║</text><text x="60.12" y="1.67" class="f">║</text></symbol><symbol id="8"><text y="1.67" class="f">║</text><text x="5.01" y="1.67" class="f">██║</text><text x="13.026" y="1.67" class="f">██║</text><text x="21.042" y="1.67" class="f">██╔══██║██║███╗██║██║</text><text x="44.088" y="1.67" class="f">██║</text><text x="60.12" y="1.67" class="f">║</text></symbol><symbol id="9"><text y="1.67" class="f">║</text><text x="5.01" y="1.67" class="f">╚██████╗███████╗██║</text><text x="26.052" y="1.67" class="f">██║╚███╔███╔╝██████╔╝</text><text x="60.12" y="1.67" class="f">║</text></symbol><symbol id="10"><text y="1.67" class="f">║</text><text x="6.012" y="1.67" class="f">╚═════╝╚══════╝╚═╝</text><text x="26.052" y="1.67" class="f">╚═╝</text><text x="30.06" y="1.67" class="f">╚══╝╚══╝</text><text x="39.078" y="1.67" class="f">╚═════╝</text><text x="60.12" y="1.67" class="f">║</text></symbol><symbol id="11"><text y="1.67" class="f">║</text><text x="21.042" y="1.67" class="f">WATCH</text><text x="61.122" y="1.67" class="f">║</text></symbol><symbol id="12"><text y="1.67" class="f">║</text><text x="9.018" y="1.67" class="f">🦀</text><text x="12.024" y="1.67" class="f">The</text><text x="16.032" y="1.67" class="f">All-Seeing</text><text x="27.054" y="1.67" class="f">OSINT</text><text x="33.066" y="1.67" class="f">Agent</text><text x="39.078" y="1.67" class="f">🦀</text><text x="60.12" y="1.67" class="f">║</text></symbol><symbol id="13"><text y="1.67" class="f">╚═══════════════════════════════════════════════════════════╝</text></symbol><symbol id="14"><text y="1.67" class="f">🦀</text><text x="3.006" y="1.67" class="f">Initializing</text><text x="16.032" y="1.67" class="f">Clawdwatch...</text></symbol><symbol id="15"><text y="1.67" class="f">📡</text><text x="3.006" y="1.67" class="f">Intelligence</text><text x="16.032" y="1.67" class="f">Sources:</text></symbol><symbol id="16"><text y="1.67" class="f">──────────────────────────────────────────────────</text></symbol><symbol id="17"><text x="2.004" y="1.67" class="f">🛩️</text><text x="7.014" y="1.67" class="f">ADS-B</text><text x="13.026" y="1.67" class="f">Exchange</text><text x="28.056" y="1.67" class="f">⏳</text><text x="30.06" y="1.67" class="f">pending</text></symbol><symbol id="18"><text x="2.004" y="1.67" class="f">🚢</text><text x="5.01" y="1.67" class="f">MarineTraffic</text><text x="26.052" y="1.67" class="f">⏳</text><text x="28.056" y="1.67" class="f">pending</text></symbol><symbol id="19"><text x="2.004" y="1.67" class="f">🛰️</text><text x="7.014" y="1.67" class="f">Sentinel</text><text x="16.032" y="1.67" class="f">Hub</text><text x="28.056" y="1.67" class="f">⏳</text><text x="30.06" y="1.67" class="f">pending</text></symbol><symbol id="20"><text x="2.004" y="1.67" class="f">📱</text><text x="5.01" y="1.67" class="f">Twitter/X</text><text x="26.052" y="1.67" class="f">⏳</text><text x="28.056" y="1.67" class="f">pending</text></symbol><symbol id="21"><text x="2.004" y="1.67" class="f">📱</text><text x="5.01" y="1.67" class="f">Telegram</text><text x="26.052" y="1.67" class="f">⏳</text><text x="28.056" y="1.67" class="f">pending</text></symbol><symbol id="22"><text x="2.004" y="1.67" class="f">📰</text><text x="5.01" y="1.67" class="f">Reuters</text><text x="26.052" y="1.67" class="f">⏳</text><text x="28.056" y="1.67" class="f">pending</text></symbol><symbol id="23"><text x="2.004" y="1.67" class="f">📰</text><text x="5.01" y="1.67" class="f">Al</text><text x="8.016" y="1.67" class="f">Jazeera</text><text x="26.052" y="1.67" class="f">⏳</text><text x="28.056" y="1.67" class="f">pending</text></symbol><symbol id="24"><text y="1.67" class="f">🔍</text><text x="3.006" y="1.67" class="f">Clawdwatch</text><text x="14.028" y="1.67" class="f">is</text><text x="17.034" y="1.67" class="f">ready.</text><text x="24.048" y="1.67" class="f">Watching...</text></symbol><symbol id="25"><text y="1.67" class="f">💡</text><text x="3.006" y="1.67" class="f">Tip:</text><text x="8.016" y="1.67" class="f">Configure</text><text x="18.036" y="1.67" class="f">your</text><text x="23.046" y="1.67" class="f">.env</text><text x="28.056" y="1.67" class="f">file</text><text x="33.066" y="1.67" class="f">to</text><text x="36.072" y="1.67" class="f">enable</text><text x="43.086" y="1.67" class="f">data</text><text x="48.096" y="1.67" class="f">sources.</text></symbol><symbol id="26"><text y="1.67" class="f">⠙</text></symbol><symbol id="a"><path fill="transparent" d="M0 0h80v31H0z"/></symbol><symbol id="b"><path fill="#6f7683" d="M0 0h1.102v2.171H0z"/></symbol></defs><path class="a" d="M0 0h80v65.13H0z"/><g style="animation-duration:5.657379000000001s;animation-iteration-count:infinite;animation-name:i;animation-timing-function:steps(1,end)"><svg width="720"><svg><use xlink:href="#a"/><use xlink:href="#b" x="-.004"/></svg><svg x="80"><use xlink:href="#a"/><use xlink:href="#b" x="-.004" y="8.659"/><use xlink:href="#1" y="2.171"/><use xlink:href="#2" y="4.342"/></svg><svg x="160"><use xlink:href="#a"/><use xlink:href="#b" x="-.004" y="8.659"/><use xlink:href="#1" y="2.171"/><use xlink:href="#2" y="4.342"/></svg><svg x="240"><use xlink:href="#a"/><use xlink:href="#b" x="-.004" y="41.224"/><use xlink:href="#1" y="2.171"/><use xlink:href="#2" y="4.342"/><use xlink:href="#3" y="10.855"/><use xlink:href="#4" y="13.026"/><use xlink:href="#5" y="15.197"/><use xlink:href="#6" y="17.368"/><use xlink:href="#7" y="19.539"/><use xlink:href="#8" y="21.71"/><use xlink:href="#9" y="23.881"/><use xlink:href="#10" y="26.052"/><use xlink:href="#11" y="28.223"/><use xlink:href="#4" y="30.394"/><use xlink:href="#12" y="32.565"/><use xlink:href="#4" y="34.736"/><use xlink:href="#13" y="36.907"/></svg><svg x="320"><use xlink:href="#a"/><use xlink:href="#b" x="-.004" y="56.421"/><use xlink:href="#1" y="2.171"/><use xlink:href="#2" y="4.342"/><use xlink:href="#3" y="10.855"/><use xlink:href="#4" y="13.026"/><use xlink:href="#5" y="15.197"/><use xlink:href="#6" y="17.368"/><use xlink:href="#7" y="19.539"/><use xlink:href="#8" y="21.71"/><use xlink:href="#9" y="23.881"/><use xlink:href="#10" y="26.052"/><use xlink:href="#11" y="28.223"/><use xlink:href="#4" y="30.394"/><use xlink:href="#12" y="32.565"/><use xlink:href="#4" y="34.736"/><use xlink:href="#13" y="36.907"/><use xlink:href="#14" y="41.249"/><use xlink:href="#15" y="45.591"/><use xlink:href="#16" y="47.762"/><use xlink:href="#17" y="49.933"/><use xlink:href="#18" y="52.104"/><use xlink:href="#19" y="54.275"/></svg><svg x="400"><use xlink:href="#a"/><use xlink:href="#b" x="-.004" y="65.105"/><use xlink:href="#4"/><use xlink:href="#5" y="2.171"/><use xlink:href="#6" y="4.342"/><use xlink:href="#7" y="6.513"/><use xlink:href="#8" y="8.684"/><use xlink:href="#9" y="10.855"/><use xlink:href="#10" y="13.026"/><use xlink:href="#11" y="15.197"/><use xlink:href="#4" y="17.368"/><use xlink:href="#12" y="19.539"/><use xlink:href="#4" y="21.71"/><use xlink:href="#13" y="23.881"/><use xlink:href="#14" y="28.223"/><use xlink:href="#15" y="32.565"/><use xlink:href="#16" y="34.736"/><use xlink:href="#17" y="36.907"/><use xlink:href="#18" y="39.078"/><use xlink:href="#19" y="41.249"/><use xlink:href="#20" y="43.42"/><use xlink:href="#21" y="45.591"/><use xlink:href="#22" y="47.762"/><use xlink:href="#23" y="49.933"/><use xlink:href="#16" y="52.104"/><use xlink:href="#24" y="56.446"/><use xlink:href="#25" y="60.788"/></svg><svg x="480"><use xlink:href="#a"/><use xlink:href="#b" x=".996" y="65.105"/><use xlink:href="#4"/><use xlink:href="#5" y="2.171"/><use xlink:href="#6" y="4.342"/><use xlink:href="#7" y="6.513"/><use xlink:href="#8" y="8.684"/><use xlink:href="#9" y="10.855"/><use xlink:href="#10" y="13.026"/><use xlink:href="#11" y="15.197"/><use xlink:href="#4" y="17.368"/><use xlink:href="#12" y="19.539"/><use xlink:href="#4" y="21.71"/><use xlink:href="#13" y="23.881"/><use xlink:href="#14" y="28.223"/><use xlink:href="#15" y="32.565"/><use xlink:href="#16" y="34.736"/><use xlink:href="#17" y="36.907"/><use xlink:href="#18" y="39.078"/><use xlink:href="#19" y="41.249"/><use xlink:href="#20" y="43.42"/><use xlink:href="#21" y="45.591"/><use xlink:href="#22" y="47.762"/><use xlink:href="#23" y="49.933"/><use xlink:href="#16" y="52.104"/><use xlink:href="#24" y="56.446"/><use xlink:href="#25" y="60.788"/><use xlink:href="#26" y="65.13"/></svg><svg x="560"><use xlink:href="#a"/><use xlink:href="#b" x="-.004" y="65.105"/><use xlink:href="#4"/><use xlink:href="#5" y="2.171"/><use xlink:href="#6" y="4.342"/><use xlink:href="#7" y="6.513"/><use xlink:href="#8" y="8.684"/><use xlink:href="#9" y="10.855"/><use xlink:href="#10" y="13.026"/><use xlink:href="#11" y="15.197"/><use xlink:href="#4" y="17.368"/><use xlink:href="#12" y="19.539"/><use xlink:href="#4" y="21.71"/><use xlink:href="#13" y="23.881"/><use xlink:href="#14" y="28.223"/><use xlink:href="#15" y="32.565"/><use xlink:href="#16" y="34.736"/><use xlink:href="#17" y="36.907"/><use xlink:href="#18" y="39.078"/><use xlink:href="#19" y="41.249"/><use xlink:href="#20" y="43.42"/><use xlink:href="#21" y="45.591"/><use xlink:href="#22" y="47.762"/><use xlink:href="#23" y="49.933"/><use xlink:href="#16" y="52.104"/><use xlink:href="#24" y="56.446"/><use xlink:href="#25" y="60.788"/><use xlink:href="#26" y="65.13"/></svg><svg x="640"><use xlink:href="#a"/><use xlink:href="#b" x="-.004" y="65.105"/><use xlink:href="#4"/><use xlink:href="#5" y="2.171"/><use xlink:href="#6" y="4.342"/><use xlink:href="#7" y="6.513"/><use xlink:href="#8" y="8.684"/><use xlink:href="#9" y="10.855"/><use xlink:href="#10" y="13.026"/><use xlink:href="#11" y="15.197"/><use xlink:href="#4" y="17.368"/><use xlink:href="#12" y="19.539"/><use xlink:href="#4" y="21.71"/><use xlink:href="#13" y="23.881"/><use xlink:href="#14" y="28.223"/><use xlink:href="#15" y="32.565"/><use xlink:href="#16" y="34.736"/><use xlink:href="#17" y="36.907"/><use xlink:href="#18" y="39.078"/><use xlink:href="#19" y="41.249"/><use xlink:href="#20" y="43.42"/><use xlink:href="#21" y="45.591"/><use xlink:href="#22" y="47.762"/><use xlink:href="#23" y="49.933"/><use xlink:href="#16" y="52.104"/><use xlink:href="#24" y="56.446"/><use xlink:href="#25" y="60.788"/></svg></svg></g></g></svg></svg>